<svg xmlns="http://www.w3.org/2000/svg" xmlns:xlink="http://www.w3.org/1999/xlink" width="500" zoomAndPan="magnify" viewBox="0 0 375 374.999991" height="500" preserveAspectRatio="xMidYMid meet" version="1.0"><path fill="#ffffff" d="M 125 0 L 41.667969 0 C 18.75 0 0 18.75 0 41.667969 L 0 125 C 0 147.917969 18.75 166.667969 41.667969 166.667969 L 125 166.667969 C 147.917969 166.667969 166.667969 147.917969 166.667969 125 L 166.667969 41.667969 C 166.667969 18.75 147.917969 0 125 0 Z M 125 0 " fill-opacity="1" fill-rule="nonzero"/><path fill="#ffffff" d="M 333.332031 0 L 250 0 C 227.082031 0 208.332031 18.75 208.332031 41.667969 L 208.332031 125 C 208.332031 147.917969 227.082031 166.667969 250 166.667969 L 333.332031 166.667969 C 356.25 166.667969 375 147.917969 375 125 L 375 41.667969 C 375 18.75 356.25 0 333.332031 0 Z M 333.332031 0 " fill-opacity="1" fill-rule="nonzero"/><path fill="#ffffff" d="M 125 208.332031 L 41.667969 208.332031 C 18.75 208.332031 0 227.082031 0 250 L 0 333.332031 C 0 356.25 18.75 375 41.667969 375 L 125 375 C 147.917969 375 166.667969 356.25 166.667969 333.332031 L 166.667969 250 C 166.667969 227.082031 147.917969 208.332031 125 208.332031 Z M 125 208.332031 " fill-opacity="1" fill-rule="nonzero"/><path fill="#ffffff" d="M 333.332031 208.332031 L 250 208.332031 C 227.082031 208.332031 208.332031 227.082031 208.332031 250 L 208.332031 333.332031 C 208.332031 356.25 227.082031 375 250 375 L 333.332031 375 C 356.25 375 375 356.25 375 333.332031 L 375 250 C 375 227.082031 356.25 208.332031 333.332031 208.332031 Z M 333.332031 208.332031 " fill-opacity="1" fill-rule="nonzero"/></svg>