<svg xmlns="http://www.w3.org/2000/svg" xmlns:xlink="http://www.w3.org/1999/xlink" width="500" zoomAndPan="magnify" viewBox="0 0 375 374.999991" height="500" preserveAspectRatio="xMidYMid meet" version="1.0"><defs><clipPath id="2cae943347"><path d="M 44 29.753906 L 370.769531 29.753906 L 370.769531 375 L 44 375 Z M 44 29.753906 " clip-rule="nonzero"/></clipPath></defs><path fill="#f7c340" d="M 243.457031 373.648438 C 228.433594 373.648438 214.882812 369.617188 202.03125 361.324219 C 187.632812 352.03125 174.671875 340.4375 162.140625 329.226562 C 159.933594 327.246094 157.722656 325.269531 155.503906 323.304688 C 149.203125 317.71875 142.769531 312.0625 136.550781 306.597656 C 114.550781 287.246094 91.796875 267.238281 70.425781 246.46875 C 65.730469 241.90625 62.515625 237.902344 60 233.492188 C 52.375 220.128906 52.636719 214.847656 61.332031 206.59375 C 63.621094 204.417969 67.746094 203.171875 72.640625 203.171875 C 78.234375 203.171875 83.855469 204.773438 88.054688 207.5625 C 95.039062 212.203125 108.464844 224.386719 121.445312 236.171875 C 131.628906 245.414062 141.246094 254.144531 148.0625 259.574219 C 148.671875 260.058594 149.382812 260.316406 150.113281 260.316406 C 150.117188 260.316406 150.117188 260.316406 150.117188 260.316406 C 151.367188 260.316406 152.542969 259.5625 153.109375 258.402344 C 153.664062 257.261719 153.519531 255.972656 152.71875 254.945312 C 142.445312 241.796875 117.117188 215.722656 105.15625 203.773438 C 99.632812 198.257812 93.980469 192.667969 88.515625 187.265625 C 78.59375 177.460938 68.332031 167.316406 58.433594 157.179688 C 50.871094 149.4375 43.128906 140.191406 46.992188 128.394531 C 49.875 119.585938 56.308594 114.734375 65.109375 114.734375 C 71.652344 114.734375 78.816406 117.5625 84.765625 122.488281 C 95.960938 131.773438 106.144531 142.734375 115.988281 153.332031 C 119.648438 157.269531 123.429688 161.339844 127.214844 165.273438 C 129.519531 167.667969 132.503906 170.867188 135.957031 174.566406 C 147.054688 186.453125 162.25 202.734375 171.316406 209.917969 C 171.980469 210.441406 172.753906 210.722656 173.558594 210.722656 C 174.863281 210.722656 176.121094 209.964844 176.765625 208.789062 C 177.402344 207.625 177.351562 206.246094 176.625 205.097656 C 173.144531 199.609375 168.164062 194.222656 163.769531 189.46875 C 161.335938 186.835938 159.035156 184.347656 157.242188 182.121094 C 149.546875 172.554688 141.261719 163.238281 133.253906 154.234375 C 126.148438 146.238281 118.796875 137.972656 111.886719 129.566406 C 108.917969 125.953125 104.648438 121.355469 99.707031 116.03125 C 87.996094 103.410156 73.417969 87.703125 69.160156 77.328125 C 65.507812 68.421875 68.101562 59.175781 75.773438 53.765625 C 79.648438 51.03125 83.792969 49.644531 88.082031 49.644531 C 92.808594 49.644531 97.601562 51.308594 102.324219 54.59375 C 109.8125 59.804688 115.632812 66.90625 121.261719 73.773438 C 123.097656 76.015625 124.996094 78.335938 126.9375 80.558594 C 146.929688 103.5625 186.886719 148.785156 202.113281 165.746094 C 202.683594 166.378906 203.4375 166.726562 204.25 166.726562 C 205.296875 166.726562 206.308594 166.128906 206.828125 165.203125 C 207.332031 164.304688 207.300781 163.222656 206.742188 162.3125 C 199.464844 150.4375 182.007812 126.207031 156.261719 92.238281 C 155.125 90.738281 153.941406 89.1875 152.730469 87.601562 C 145.347656 77.9375 136.980469 66.984375 132.523438 58.539062 C 130.242188 54.027344 130.242188 49.15625 132.53125 44.078125 C 135.429688 37.644531 141.46875 32.878906 148.296875 31.644531 C 149.414062 31.445312 150.542969 31.339844 151.65625 31.339844 C 155.695312 31.339844 159.664062 32.671875 163.460938 35.296875 C 169.257812 39.308594 179.058594 51.828125 189.429688 65.085938 C 196.414062 74.007812 203.636719 83.234375 210.320312 90.761719 C 214.136719 95.0625 222.886719 106.476562 232.152344 118.5625 C 244.183594 134.257812 257.820312 152.046875 263.871094 158.441406 C 268.785156 163.636719 274.175781 166.269531 279.898438 166.269531 C 282.230469 166.269531 284.648438 165.824219 287.078125 164.949219 C 295.445312 161.933594 299.992188 155.070312 299.878906 145.621094 C 299.652344 126.773438 304.914062 111.6875 315.960938 99.496094 C 321.992188 92.839844 336.878906 87.421875 349.140625 87.421875 C 353.757812 87.421875 357.617188 88.207031 360.308594 89.683594 C 369.148438 94.546875 371.796875 103.457031 367.207031 112.941406 C 365.855469 115.738281 364.433594 118.5625 363.058594 121.296875 C 356.164062 135 349.035156 149.175781 347.566406 165.683594 C 346.75 174.898438 347.996094 183.785156 349.203125 192.382812 C 349.644531 195.511719 350.101562 198.75 350.445312 201.9375 C 351.203125 208.992188 352.339844 216.136719 353.441406 223.046875 C 356.070312 239.605469 358.796875 256.722656 356.46875 273.589844 L 356.460938 273.648438 L 356.457031 273.707031 C 355.117188 301.800781 338.96875 323.304688 325.664062 336.398438 C 309.988281 351.816406 289.324219 364.25 270.382812 369.648438 C 260.988281 372.304688 251.925781 373.648438 243.457031 373.648438 " fill-opacity="1" fill-rule="nonzero"/><g clip-path="url(#2cae943347)"><path fill="#c08625" d="M 151.65625 29.992188 C 150.472656 29.992188 149.273438 30.097656 148.054688 30.316406 C 140.699219 31.648438 134.375 36.707031 131.300781 43.523438 C 129.28125 48.003906 128.46875 53.507812 131.328125 59.167969 C 136.574219 69.105469 147.089844 82.371094 155.1875 93.054688 C 168.132812 110.132812 195.363281 146.332031 205.589844 163.019531 C 206.308594 164.191406 205.324219 165.378906 204.25 165.378906 C 203.859375 165.378906 203.457031 165.21875 203.121094 164.84375 C 187.917969 147.914062 147.753906 102.457031 127.953125 79.675781 C 120.066406 70.601562 113.207031 60.519531 103.09375 53.484375 C 98.152344 50.046875 93.066406 48.296875 88.082031 48.296875 C 83.574219 48.296875 79.148438 49.734375 74.996094 52.660156 C 67.375 58.035156 63.722656 67.632812 67.914062 77.84375 C 74.050781 92.792969 100.726562 118.117188 110.84375 130.425781 C 125.5625 148.328125 141.691406 164.945312 156.191406 182.964844 C 161.285156 189.292969 170.164062 197.4375 175.480469 205.820312 C 176.554688 207.511719 175.171875 209.371094 173.558594 209.371094 C 173.089844 209.371094 172.605469 209.21875 172.15625 208.855469 C 160.382812 199.53125 137.949219 174.480469 128.1875 164.339844 C 114.210938 149.816406 101.058594 134.246094 85.625 121.453125 C 79.40625 116.292969 71.96875 113.382812 65.109375 113.382812 C 56.628906 113.382812 49.03125 117.828125 45.710938 127.976562 C 41.628906 140.433594 49.550781 150.015625 57.464844 158.121094 C 72.835938 173.859375 88.660156 189.203125 104.203125 204.730469 C 116.238281 216.753906 141.425781 242.675781 151.652344 255.777344 C 152.769531 257.207031 151.5625 258.964844 150.117188 258.964844 C 149.714844 258.964844 149.296875 258.832031 148.90625 258.515625 C 133.191406 246.003906 101.238281 214.703125 88.800781 206.441406 C 84.144531 203.347656 78.125 201.824219 72.640625 201.824219 C 67.625 201.824219 63.054688 203.097656 60.402344 205.613281 C 51.046875 214.5 50.992188 220.421875 58.828125 234.164062 C 61.738281 239.265625 65.402344 243.46875 69.488281 247.441406 C 96.921875 274.105469 126 298.953125 154.609375 324.3125 C 169.652344 337.644531 184.304688 351.496094 201.296875 362.460938 C 214.808594 371.179688 228.886719 375 243.457031 375 C 252.375 375 261.484375 373.566406 270.753906 370.949219 C 306.023438 360.890625 355.414062 323.832031 357.808594 273.773438 C 361.132812 249.644531 354.371094 225.773438 351.78125 201.796875 C 350.503906 189.890625 347.808594 178.214844 348.914062 165.804688 C 350.644531 146.289062 360.300781 130.320312 368.421875 113.53125 C 373.285156 103.476562 370.472656 93.730469 360.960938 88.5 C 357.90625 86.824219 353.753906 86.074219 349.140625 86.074219 C 336.933594 86.074219 321.527344 91.339844 314.960938 98.585938 C 302.710938 112.101562 298.316406 127.9375 298.527344 145.636719 C 298.632812 154.226562 294.636719 160.789062 286.621094 163.679688 C 284.296875 164.515625 282.058594 164.917969 279.898438 164.917969 C 274.34375 164.917969 269.335938 162.253906 264.851562 157.511719 C 254.210938 146.265625 220.160156 99.816406 211.328125 89.863281 C 194.59375 71.015625 174.132812 41.039062 164.230469 34.1875 C 160.425781 31.558594 156.195312 29.992188 151.65625 29.992188 Z M 151.65625 32.691406 C 155.414062 32.691406 159.128906 33.941406 162.695312 36.410156 C 168.324219 40.300781 178.0625 52.746094 188.371094 65.917969 C 195.367188 74.855469 202.597656 84.097656 209.308594 91.65625 C 213.09375 95.921875 221.832031 107.320312 231.082031 119.386719 C 243.136719 135.105469 256.792969 152.921875 262.890625 159.367188 C 268.066406 164.84375 273.792969 167.617188 279.898438 167.617188 C 282.390625 167.617188 284.960938 167.148438 287.535156 166.21875 C 296.355469 163.042969 301.34375 155.527344 301.226562 145.601562 C 301.121094 136.558594 302.230469 128.640625 304.632812 121.390625 C 307.230469 113.554688 311.261719 106.691406 316.960938 100.402344 C 322.769531 93.992188 337.207031 88.773438 349.140625 88.773438 C 353.53125 88.773438 357.167969 89.496094 359.660156 90.867188 C 363.675781 93.078125 366.386719 96.226562 367.492188 99.972656 C 368.609375 103.742188 368.085938 108.023438 365.992188 112.351562 C 364.644531 115.140625 363.226562 117.960938 361.851562 120.6875 C 354.902344 134.507812 347.714844 148.796875 346.222656 165.5625 C 345.390625 174.933594 346.652344 183.898438 347.867188 192.570312 C 348.308594 195.6875 348.761719 198.914062 349.101562 202.085938 C 349.863281 209.171875 351.003906 216.335938 352.105469 223.257812 C 354.726562 239.714844 357.429688 256.734375 355.132812 273.40625 L 355.117188 273.523438 L 355.109375 273.644531 C 353.789062 301.300781 337.851562 322.511719 324.714844 335.433594 C 309.195312 350.703125 288.746094 363.011719 270.019531 368.351562 C 260.738281 370.972656 251.804688 372.300781 243.457031 372.300781 C 228.699219 372.300781 215.386719 368.339844 202.761719 360.191406 C 188.453125 350.957031 175.535156 339.398438 163.042969 328.21875 C 160.867188 326.273438 158.621094 324.261719 156.398438 322.292969 C 150.09375 316.707031 143.664062 311.050781 137.445312 305.582031 C 115.453125 286.246094 92.714844 266.246094 71.367188 245.503906 C 66.765625 241.03125 63.621094 237.121094 61.171875 232.824219 C 57.289062 226.011719 55.699219 221.640625 55.863281 218.195312 C 56.023438 214.8125 57.875 211.738281 62.261719 207.574219 C 64.273438 205.660156 68.15625 204.523438 72.640625 204.523438 C 77.976562 204.523438 83.320312 206.039062 87.304688 208.6875 C 94.207031 213.269531 107.59375 225.421875 120.539062 237.171875 C 130.738281 246.429688 140.371094 255.171875 147.226562 260.628906 C 148.070312 261.308594 149.074219 261.667969 150.117188 261.667969 C 151.878906 261.667969 153.53125 260.617188 154.324219 258.996094 C 155.097656 257.40625 154.890625 255.535156 153.78125 254.117188 C 143.472656 240.914062 118.089844 214.789062 106.109375 202.820312 C 100.582031 197.296875 94.929688 191.707031 89.460938 186.304688 C 79.542969 176.5 69.289062 166.367188 59.394531 156.234375 C 51.78125 148.4375 44.648438 139.894531 48.273438 128.8125 C 50.960938 120.605469 56.941406 116.085938 65.109375 116.085938 C 71.34375 116.085938 78.195312 118.796875 83.902344 123.53125 C 95.03125 132.753906 105.183594 143.683594 115 154.25 C 118.660156 158.191406 122.449219 162.269531 126.242188 166.210938 C 128.539062 168.597656 131.519531 171.789062 134.972656 175.488281 C 146.097656 187.40625 161.332031 203.730469 170.476562 210.976562 C 171.382812 211.691406 172.449219 212.074219 173.558594 212.074219 C 175.371094 212.074219 177.054688 211.0625 177.949219 209.4375 C 178.828125 207.835938 178.757812 205.945312 177.761719 204.375 C 174.21875 198.785156 169.195312 193.347656 164.761719 188.554688 C 162.34375 185.9375 160.058594 183.464844 158.292969 181.273438 C 150.574219 171.679688 142.28125 162.355469 134.261719 153.332031 C 127.164062 145.347656 119.824219 137.09375 112.929688 128.710938 C 109.933594 125.066406 105.652344 120.449219 100.695312 115.113281 C 89.058594 102.570312 74.574219 86.964844 70.410156 76.8125 C 68.660156 72.550781 68.378906 68.203125 69.601562 64.234375 C 70.753906 60.5 73.160156 57.261719 76.550781 54.871094 C 80.195312 52.296875 84.074219 50.996094 88.082031 50.996094 C 92.53125 50.996094 97.0625 52.578125 101.550781 55.703125 C 108.890625 60.804688 114.394531 67.519531 120.214844 74.628906 C 122.0625 76.878906 123.964844 79.207031 125.917969 81.449219 C 145.925781 104.464844 185.886719 149.691406 201.109375 166.652344 C 201.941406 167.570312 203.050781 168.078125 204.25 168.078125 C 205.800781 168.078125 207.242188 167.226562 208.003906 165.863281 C 208.75 164.53125 208.707031 162.941406 207.894531 161.605469 C 200.59375 149.699219 183.113281 125.429688 157.335938 91.421875 C 156.199219 89.921875 155.011719 88.371094 153.800781 86.78125 C 146.457031 77.167969 138.136719 66.273438 133.726562 57.929688 C 131.640625 53.785156 131.65625 49.3125 133.761719 44.632812 C 136.480469 38.597656 142.140625 34.128906 148.535156 32.972656 C 149.574219 32.785156 150.625 32.691406 151.65625 32.691406 " fill-opacity="1" fill-rule="nonzero"/></g><path fill="#53524e" d="M 203.335938 10.382812 C 225.886719 23.082031 244.144531 42.632812 255.582031 65.84375 C 258.75 72.265625 261.292969 78.914062 263.3125 85.8125 C 264.902344 91.246094 273.417969 88.933594 271.816406 83.464844 C 264.125 57.179688 248.308594 33.300781 227.082031 15.992188 C 221.023438 11.050781 214.597656 6.601562 207.785156 2.765625 C 202.832031 -0.0234375 198.386719 7.59375 203.335938 10.382812 " fill-opacity="1" fill-rule="nonzero"/><path fill="#53524e" d="M 194.304688 36.386719 C 214.277344 48.121094 229.019531 67.730469 235.367188 89.972656 C 236.921875 95.421875 245.433594 93.105469 243.867188 87.625 C 238.46875 68.699219 227.480469 51.273438 212.445312 38.527344 C 208.164062 34.898438 203.59375 31.609375 198.753906 28.769531 C 193.847656 25.890625 189.40625 33.511719 194.304688 36.386719 " fill-opacity="1" fill-rule="nonzero"/><path fill="#53524e" d="M 1.292969 248.527344 C 13.125 273.160156 32.730469 293.988281 56.398438 307.597656 C 63.214844 311.519531 70.394531 314.808594 77.785156 317.5 C 80.019531 318.316406 82.609375 316.582031 83.207031 314.417969 C 83.878906 311.964844 82.371094 309.816406 80.128906 308.992188 C 56.238281 300.285156 34.914062 283.925781 20.152344 263.160156 C 15.867188 257.132812 12.109375 250.738281 8.90625 244.074219 C 7.875 241.925781 4.8125 241.359375 2.875 242.492188 C 0.683594 243.777344 0.257812 246.371094 1.292969 248.527344 " fill-opacity="1" fill-rule="nonzero"/><path fill="#53524e" d="M 27.8125 241.1875 C 36.59375 258.652344 50.945312 273.234375 67.972656 282.757812 C 73.007812 285.574219 78.308594 287.929688 83.742188 289.871094 C 85.980469 290.667969 88.5625 288.964844 89.160156 286.789062 C 89.832031 284.34375 88.335938 282.167969 86.082031 281.363281 C 64.3125 273.59375 45.820312 257.402344 35.425781 236.734375 C 34.359375 234.609375 31.355469 234.007812 29.394531 235.152344 C 27.230469 236.421875 26.738281 239.054688 27.8125 241.1875 " fill-opacity="1" fill-rule="nonzero"/></svg>