<svg xmlns="http://www.w3.org/2000/svg" xmlns:xlink="http://www.w3.org/1999/xlink" width="500" zoomAndPan="magnify" viewBox="0 0 375 374.999991" height="500" preserveAspectRatio="xMidYMid meet" version="1.0"><defs><g/><clipPath id="5e88918896"><path d="M 0 154.824219 L 375 154.824219 L 375 199.269531 L 0 199.269531 Z M 0 154.824219 " clip-rule="nonzero"/></clipPath></defs><path stroke-linecap="butt" transform="matrix(0.00181951, -0.749998, 0.749998, 0.00181951, 187.775486, 305.706426)" fill="none" stroke-linejoin="miter" d="M 0.000412453 0.502478 L 357.610845 0.499493 " stroke="#000000" stroke-width="1" stroke-opacity="1" stroke-miterlimit="4"/><g fill="#000000" fill-opacity="1"><g transform="translate(24.880181, 252.929936)"><g><path d="M 103.402344 -144.636719 C 103.402344 -99.886719 39.476562 -94.292969 39.476562 -79.910156 C 39.476562 -70.800781 54.179688 -74.476562 71.917969 -47.945312 C 97.171875 -10.070312 101.644531 0 108.996094 0 L 133.449219 0 L 133.449219 -1.597656 C 115.230469 -1.597656 100.207031 -29.886719 85.183594 -52.261719 C 69.839844 -75.273438 41.074219 -70.800781 41.074219 -79.910156 C 41.074219 -90.296875 118.425781 -95.574219 118.425781 -144.957031 C 118.425781 -150.871094 116.507812 -157.101562 113.632812 -159.820312 L 97.808594 -159.820312 C 101.324219 -157.261719 103.402344 -150.550781 103.402344 -144.636719 Z M 4.792969 0 L 47.785156 0 L 47.785156 -1.597656 C 34.042969 -1.597656 33.082031 -12.945312 33.082031 -44.429688 L 33.082031 -115.390625 C 33.082031 -146.875 34.042969 -158.222656 47.785156 -158.222656 L 47.785156 -159.820312 L 4.792969 -159.820312 L 4.792969 -158.222656 C 18.539062 -158.222656 19.5 -146.875 19.5 -115.390625 L 19.5 -44.429688 C 19.5 -12.945312 18.539062 -1.597656 4.792969 -1.597656 Z M 4.792969 0 "/></g></g></g><g fill="#000000" fill-opacity="1"><g transform="translate(206.742316, 252.929936)"><g><path d="M 4.792969 -159.820312 L 4.792969 -158.222656 C 18.539062 -158.222656 19.5 -146.875 19.5 -115.390625 L 19.5 -44.429688 C 19.5 -12.945312 18.539062 -1.597656 4.792969 -1.597656 L 4.792969 0 L 47.945312 0 L 47.945312 -1.597656 C 34.203125 -1.597656 21.097656 -20.296875 21.097656 -66.804688 L 21.097656 -150.871094 L 122.261719 3.195312 L 123.859375 3.195312 L 123.859375 -115.390625 C 123.859375 -146.875 124.820312 -158.222656 138.5625 -158.222656 L 138.5625 -159.820312 L 95.414062 -159.820312 L 95.414062 -158.222656 C 109.15625 -158.222656 122.261719 -139.523438 122.261719 -93.015625 L 122.261719 -23.332031 L 32.761719 -159.820312 Z M 4.792969 -159.820312 "/></g></g></g><g clip-path="url(#5e88918896)"><path fill="#e6e6e6" d="M -1.367188 154.824219 L 380.273438 154.824219 L 380.273438 199.269531 L -1.367188 199.269531 Z M -1.367188 154.824219 " fill-opacity="1" fill-rule="nonzero"/></g><g fill="#000000" fill-opacity="1"><g transform="translate(4.025943, 185.177329)"><g><path d="M 8.34375 -8.296875 L 4.734375 -4.640625 L 4.734375 0 L 2.875 0 L 2.875 -17.640625 L 4.734375 -17.640625 L 4.734375 -6.984375 L 15.09375 -17.640625 L 17.234375 -17.640625 L 9.609375 -9.65625 L 17.765625 0 L 15.546875 0 Z M 8.34375 -8.296875 "/></g></g></g><g fill="#000000" fill-opacity="1"><g transform="translate(29.980407, 185.177329)"><g><path d="M 2.875 -17.640625 L 4.734375 -17.640625 L 4.734375 0 L 2.875 0 Z M 2.875 -17.640625 "/></g></g></g><g fill="#000000" fill-opacity="1"><g transform="translate(45.630723, 185.177329)"><g><path d="M 21.203125 -17.640625 L 21.203125 0 L 19.40625 0 L 19.40625 -14.109375 L 12.46875 -2.25 L 11.59375 -2.25 L 4.65625 -14.03125 L 4.65625 0 L 2.875 0 L 2.875 -17.640625 L 4.40625 -17.640625 L 12.078125 -4.5625 L 19.65625 -17.640625 Z M 21.203125 -17.640625 "/></g></g></g><g fill="#000000" fill-opacity="1"><g transform="translate(77.732404, 185.177329)"><g><path d="M 13.984375 -9.09375 C 15.148438 -8.84375 16.046875 -8.34375 16.671875 -7.59375 C 17.296875 -6.851562 17.609375 -5.894531 17.609375 -4.71875 C 17.609375 -3.195312 17.050781 -2.03125 15.9375 -1.21875 C 14.820312 -0.40625 13.171875 0 10.984375 0 L 2.875 0 L 2.875 -17.640625 L 10.484375 -17.640625 C 12.453125 -17.640625 13.976562 -17.242188 15.0625 -16.453125 C 16.144531 -15.660156 16.6875 -14.546875 16.6875 -13.109375 C 16.6875 -12.128906 16.445312 -11.300781 15.96875 -10.625 C 15.488281 -9.945312 14.828125 -9.4375 13.984375 -9.09375 Z M 4.734375 -16.109375 L 4.734375 -9.703125 L 10.359375 -9.703125 C 11.785156 -9.703125 12.882812 -9.972656 13.65625 -10.515625 C 14.425781 -11.066406 14.8125 -11.863281 14.8125 -12.90625 C 14.8125 -13.945312 14.425781 -14.738281 13.65625 -15.28125 C 12.882812 -15.832031 11.785156 -16.109375 10.359375 -16.109375 Z M 10.96875 -1.53125 C 12.539062 -1.53125 13.726562 -1.800781 14.53125 -2.34375 C 15.34375 -2.882812 15.75 -3.722656 15.75 -4.859375 C 15.75 -7.066406 14.15625 -8.171875 10.96875 -8.171875 L 4.734375 -8.171875 L 4.734375 -1.53125 Z M 10.96875 -1.53125 "/></g></g></g><g fill="#000000" fill-opacity="1"><g transform="translate(104.770198, 185.177329)"><g><path d="M 15.34375 -1.609375 L 15.34375 0 L 2.875 0 L 2.875 -17.640625 L 14.96875 -17.640625 L 14.96875 -16.03125 L 4.734375 -16.03125 L 4.734375 -9.75 L 13.859375 -9.75 L 13.859375 -8.171875 L 4.734375 -8.171875 L 4.734375 -1.609375 Z M 15.34375 -1.609375 "/></g></g></g><g fill="#000000" fill-opacity="1"><g transform="translate(129.66653, 185.177329)"><g><path d="M 14.921875 0 L 10.890625 -5.671875 C 10.429688 -5.617188 9.957031 -5.59375 9.46875 -5.59375 L 4.734375 -5.59375 L 4.734375 0 L 2.875 0 L 2.875 -17.640625 L 9.46875 -17.640625 C 11.726562 -17.640625 13.492188 -17.101562 14.765625 -16.03125 C 16.046875 -14.957031 16.6875 -13.476562 16.6875 -11.59375 C 16.6875 -10.21875 16.335938 -9.050781 15.640625 -8.09375 C 14.941406 -7.144531 13.945312 -6.460938 12.65625 -6.046875 L 16.96875 0 Z M 9.421875 -7.1875 C 11.171875 -7.1875 12.503906 -7.570312 13.421875 -8.34375 C 14.347656 -9.113281 14.8125 -10.195312 14.8125 -11.59375 C 14.8125 -13.019531 14.347656 -14.113281 13.421875 -14.875 C 12.503906 -15.644531 11.171875 -16.03125 9.421875 -16.03125 L 4.734375 -16.03125 L 4.734375 -7.1875 Z M 9.421875 -7.1875 "/></g></g></g><g fill="#000000" fill-opacity="1"><g transform="translate(155.92332, 185.177329)"><g><path d="M 2.875 -17.640625 L 4.734375 -17.640625 L 4.734375 -1.609375 L 14.625 -1.609375 L 14.625 0 L 2.875 0 Z M 2.875 -17.640625 "/></g></g></g><g fill="#000000" fill-opacity="1"><g transform="translate(178.804195, 185.177329)"><g><path d="M 8.921875 -6.09375 L 8.921875 0 L 7.078125 0 L 7.078125 -6.09375 L 0.03125 -17.640625 L 2.015625 -17.640625 L 8.0625 -7.734375 L 14.109375 -17.640625 L 15.984375 -17.640625 Z M 8.921875 -6.09375 "/></g></g></g><g fill="#000000" fill-opacity="1"><g transform="translate(202.843937, 185.177329)"><g/></g></g><g fill="#000000" fill-opacity="1"><g transform="translate(217.486489, 185.177329)"><g><path d="M 17.609375 -17.640625 L 17.609375 0 L 16.078125 0 L 4.734375 -14.3125 L 4.734375 0 L 2.875 0 L 2.875 -17.640625 L 4.40625 -17.640625 L 15.78125 -3.328125 L 15.78125 -17.640625 Z M 17.609375 -17.640625 "/></g></g></g><g fill="#000000" fill-opacity="1"><g transform="translate(246.010706, 185.177329)"><g><path d="M 15.296875 -8.828125 L 17.09375 -8.828125 L 17.09375 -2.09375 C 16.269531 -1.375 15.289062 -0.816406 14.15625 -0.421875 C 13.03125 -0.0351562 11.847656 0.15625 10.609375 0.15625 C 8.847656 0.15625 7.257812 -0.226562 5.84375 -1 C 4.4375 -1.78125 3.328125 -2.851562 2.515625 -4.21875 C 1.710938 -5.59375 1.3125 -7.128906 1.3125 -8.828125 C 1.3125 -10.515625 1.710938 -12.039062 2.515625 -13.40625 C 3.328125 -14.78125 4.4375 -15.851562 5.84375 -16.625 C 7.257812 -17.40625 8.859375 -17.796875 10.640625 -17.796875 C 11.984375 -17.796875 13.21875 -17.582031 14.34375 -17.15625 C 15.46875 -16.726562 16.414062 -16.09375 17.1875 -15.25 L 16.03125 -14.0625 C 14.632812 -15.4375 12.863281 -16.125 10.71875 -16.125 C 9.28125 -16.125 7.984375 -15.804688 6.828125 -15.171875 C 5.679688 -14.546875 4.78125 -13.675781 4.125 -12.5625 C 3.476562 -11.445312 3.15625 -10.203125 3.15625 -8.828125 C 3.15625 -7.441406 3.476562 -6.191406 4.125 -5.078125 C 4.78125 -3.972656 5.679688 -3.101562 6.828125 -2.46875 C 7.972656 -1.832031 9.257812 -1.515625 10.6875 -1.515625 C 12.5 -1.515625 14.035156 -1.96875 15.296875 -2.875 Z M 15.296875 -8.828125 "/></g></g></g><g fill="#000000" fill-opacity="1"><g transform="translate(273.527168, 185.177329)"><g><path d="M 9.984375 0.15625 C 7.691406 0.15625 5.90625 -0.5 4.625 -1.8125 C 3.351562 -3.125 2.71875 -5.03125 2.71875 -7.53125 L 2.71875 -17.640625 L 4.59375 -17.640625 L 4.59375 -7.609375 C 4.59375 -5.554688 5.050781 -4.023438 5.96875 -3.015625 C 6.894531 -2.015625 8.234375 -1.515625 9.984375 -1.515625 C 11.742188 -1.515625 13.085938 -2.015625 14.015625 -3.015625 C 14.941406 -4.023438 15.40625 -5.554688 15.40625 -7.609375 L 15.40625 -17.640625 L 17.21875 -17.640625 L 17.21875 -7.53125 C 17.21875 -5.03125 16.582031 -3.125 15.3125 -1.8125 C 14.039062 -0.5 12.265625 0.15625 9.984375 0.15625 Z M 9.984375 0.15625 "/></g></g></g><g fill="#000000" fill-opacity="1"><g transform="translate(301.522309, 185.177329)"><g><path d="M 8.921875 -6.09375 L 8.921875 0 L 7.078125 0 L 7.078125 -6.09375 L 0.03125 -17.640625 L 2.015625 -17.640625 L 8.0625 -7.734375 L 14.109375 -17.640625 L 15.984375 -17.640625 Z M 8.921875 -6.09375 "/></g></g></g><g fill="#000000" fill-opacity="1"><g transform="translate(325.562051, 185.177329)"><g><path d="M 15.34375 -1.609375 L 15.34375 0 L 2.875 0 L 2.875 -17.640625 L 14.96875 -17.640625 L 14.96875 -16.03125 L 4.734375 -16.03125 L 4.734375 -9.75 L 13.859375 -9.75 L 13.859375 -8.171875 L 4.734375 -8.171875 L 4.734375 -1.609375 Z M 15.34375 -1.609375 "/></g></g></g><g fill="#000000" fill-opacity="1"><g transform="translate(350.458392, 185.177329)"><g><path d="M 17.609375 -17.640625 L 17.609375 0 L 16.078125 0 L 4.734375 -14.3125 L 4.734375 0 L 2.875 0 L 2.875 -17.640625 L 4.40625 -17.640625 L 15.78125 -3.328125 L 15.78125 -17.640625 Z M 17.609375 -17.640625 "/></g></g></g></svg>