<svg xmlns="http://www.w3.org/2000/svg" xmlns:xlink="http://www.w3.org/1999/xlink" width="500" viewBox="0 0 375 374.999991" height="500" version="1.0">
  <path fill="#FFFFFF" d="M 323.40625 361.34375 L 51.445312 361.34375 C 47.335938 361.34375 44.003906 358.007812 44.003906 353.890625 L 44.003906 184.222656 C 44.003906 180.105469 47.335938 176.757812 51.445312 176.757812 C 55.558594 176.757812 58.886719 180.105469 58.886719 184.222656 L 58.886719 346.441406 L 315.964844 346.441406 L 315.964844 184.222656 C 315.964844 180.105469 319.292969 176.757812 323.40625 176.757812 C 327.515625 176.757812 330.847656 180.105469 330.847656 184.222656 L 330.847656 353.890625 C 330.847656 358.007812 327.515625 361.34375 323.40625 361.34375 " fill-opacity="1" fill-rule="nonzero" />
  <path fill="#FFFFFF" d="M 366.066406 168.332031 C 364.460938 168.332031 362.851562 167.832031 361.496094 166.769531 L 187.425781 31.507812 L 13.355469 166.769531 C 10.097656 169.292969 5.425781 168.703125 2.902344 165.457031 C 0.386719 162.195312 0.976562 157.519531 4.21875 155 L 182.859375 16.183594 C 185.554688 14.097656 189.296875 14.097656 191.996094 16.183594 L 370.632812 155 C 373.875 157.519531 374.464844 162.195312 371.945312 165.457031 C 370.484375 167.34375 368.277344 168.332031 366.066406 168.332031 " fill-opacity="1" fill-rule="nonzero" />
</svg>
