<svg xmlns="http://www.w3.org/2000/svg" xmlns:xlink="http://www.w3.org/1999/xlink" width="500" zoomAndPan="magnify" viewBox="0 0 375 374.999991" height="500" preserveAspectRatio="xMidYMid meet" version="1.0"><defs><clipPath id="0b49eb489e"><path d="M 0 0.9375 L 375 0.9375 L 375 375 L 0 375 Z M 0 0.9375 " clip-rule="nonzero"/></clipPath></defs><g clip-path="url(#0b49eb489e)"><path fill="#ffffff" d="M 370.324219 197.589844 L 315.628906 252.285156 C 312.980469 254.933594 309.550781 256.261719 305.96875 256.261719 C 302.617188 256.261719 299.191406 255.011719 296.464844 252.441406 C 293.660156 249.792969 292.257812 245.898438 292.257812 242.078125 L 292.257812 219.796875 L 149.675781 219.796875 C 142.738281 219.796875 137.128906 214.1875 137.128906 207.253906 L 137.128906 168.53125 C 137.128906 161.59375 142.738281 155.984375 149.675781 155.984375 L 292.179688 155.984375 L 292.179688 133.859375 C 292.179688 129.105469 294.28125 124.429688 298.253906 121.78125 C 303.863281 118.121094 311.03125 118.976562 315.550781 123.496094 L 370.246094 178.191406 C 375.625 183.566406 375.625 192.292969 370.324219 197.589844 Z M 149.675781 247.222656 C 127.625 247.222656 109.78125 229.300781 109.78125 207.332031 L 109.78125 168.605469 C 109.78125 146.558594 127.703125 128.714844 149.675781 128.714844 L 264.832031 128.714844 L 264.832031 14.648438 C 264.832031 7.09375 258.753906 0.9375 251.195312 0.9375 L 14.027344 0.9375 C 6.46875 0.9375 0.3125 7.09375 0.3125 14.648438 L 0.3125 361.289062 C 0.3125 368.84375 6.46875 375 14.027344 375 L 251.195312 375 C 258.753906 375 264.910156 368.84375 264.910156 361.289062 L 264.910156 247.222656 Z M 149.675781 247.222656 " fill-opacity="1" fill-rule="nonzero"/></g></svg>