<svg xmlns="http://www.w3.org/2000/svg" xmlns:xlink="http://www.w3.org/1999/xlink" width="500" zoomAndPan="magnify" viewBox="0 0 375 374.999991" height="500" preserveAspectRatio="xMidYMid meet" version="1.0"><defs><clipPath id="f59725339b"><path d="M 113 144 L 262.5 144 L 262.5 248.625 L 113 248.625 Z M 113 144 " clip-rule="nonzero"/></clipPath><clipPath id="0cec0658e3"><path d="M 20.859375 0 L 210 0 L 210 322 L 20.859375 322 Z M 20.859375 0 " clip-rule="nonzero"/></clipPath><clipPath id="fc34e4acbb"><path d="M 120 52 L 353.859375 52 L 353.859375 375 L 120 375 Z M 120 52 " clip-rule="nonzero"/></clipPath></defs><g clip-path="url(#f59725339b)"><path fill="#000000" d="M 161.4375 185.667969 C 145.820312 148.738281 200.167969 126.425781 215.117188 163.550781 C 226.757812 198.511719 177.660156 218.671875 161.4375 185.667969 Z M 228.953125 202.28125 C 260.28125 200.941406 256.296875 154.769531 225.175781 158.882812 C 225.828125 160.5625 226.367188 162.28125 226.789062 164.035156 C 227.210938 165.792969 227.515625 167.566406 227.699219 169.359375 C 227.882812 171.15625 227.945312 172.957031 227.886719 174.757812 C 227.828125 176.5625 227.648438 178.355469 227.347656 180.132812 C 227.050781 181.914062 226.632812 183.664062 226.097656 185.386719 C 225.5625 187.109375 224.914062 188.789062 224.152344 190.425781 C 223.390625 192.0625 222.523438 193.640625 221.550781 195.160156 C 220.578125 196.679688 219.507812 198.128906 218.339844 199.503906 C 221.632812 201.367188 225.171875 202.292969 228.953125 202.28125 Z M 146.601562 202.28125 C 150.386719 202.292969 153.921875 201.367188 157.214844 199.503906 C 156.046875 198.128906 154.976562 196.679688 154.003906 195.160156 C 153.03125 193.640625 152.164062 192.0625 151.402344 190.425781 C 150.640625 188.789062 149.992188 187.109375 149.460938 185.386719 C 148.925781 183.664062 148.507812 181.914062 148.207031 180.132812 C 147.90625 178.355469 147.730469 176.5625 147.671875 174.757812 C 147.613281 172.957031 147.675781 171.15625 147.859375 169.359375 C 148.042969 167.566406 148.34375 165.792969 148.765625 164.035156 C 149.1875 162.28125 149.726562 160.5625 150.378906 158.882812 C 119.238281 154.773438 115.296875 200.953125 146.601562 202.28125 Z M 211.003906 213.507812 C 204.882812 213.53125 189.160156 213.488281 183.277344 213.507812 L 164.550781 213.507812 C 163.789062 213.503906 163.027344 213.542969 162.269531 213.617188 C 161.511719 213.691406 160.761719 213.800781 160.011719 213.949219 C 159.265625 214.097656 158.527344 214.28125 157.800781 214.5 C 157.070312 214.722656 156.355469 214.976562 155.648438 215.269531 C 154.945312 215.558594 154.257812 215.882812 153.585938 216.242188 C 152.914062 216.601562 152.261719 216.992188 151.628906 217.414062 C 150.996094 217.835938 150.382812 218.289062 149.792969 218.769531 C 149.203125 219.253906 148.640625 219.761719 148.101562 220.300781 C 147.5625 220.839844 147.050781 221.402344 146.566406 221.988281 C 146.082031 222.578125 145.628906 223.1875 145.203125 223.820312 C 144.78125 224.453125 144.390625 225.105469 144.027344 225.777344 C 143.667969 226.445312 143.34375 227.132812 143.050781 227.835938 C 142.757812 228.539062 142.5 229.257812 142.277344 229.984375 C 142.058594 230.714844 141.871094 231.449219 141.722656 232.199219 C 141.570312 232.945312 141.457031 233.695312 141.382812 234.453125 C 141.308594 235.210938 141.269531 235.972656 141.265625 236.734375 L 141.265625 248.402344 L 234.34375 248.402344 L 234.289062 236.734375 C 234.289062 235.972656 234.25 235.210938 234.171875 234.453125 C 234.097656 233.695312 233.984375 232.945312 233.835938 232.199219 C 233.683594 231.449219 233.5 230.714844 233.277344 229.984375 C 233.054688 229.257812 232.796875 228.539062 232.503906 227.835938 C 232.210938 227.132812 231.886719 226.449219 231.527344 225.777344 C 231.167969 225.105469 230.773438 224.453125 230.351562 223.820312 C 229.925781 223.1875 229.472656 222.578125 228.988281 221.988281 C 228.503906 221.402344 227.992188 220.839844 227.453125 220.300781 C 226.914062 219.761719 226.351562 219.253906 225.761719 218.769531 C 225.171875 218.289062 224.5625 217.835938 223.929688 217.414062 C 223.292969 216.992188 222.640625 216.601562 221.96875 216.242188 C 221.296875 215.882812 220.609375 215.558594 219.90625 215.269531 C 219.203125 214.976562 218.484375 214.722656 217.757812 214.5 C 217.027344 214.28125 216.289062 214.097656 215.542969 213.949219 C 214.796875 213.800781 214.042969 213.691406 213.285156 213.617188 C 212.527344 213.542969 211.765625 213.503906 211.003906 213.507812 Z M 262.015625 236.734375 C 262.011719 235.917969 261.960938 235.105469 261.871094 234.296875 C 261.78125 233.484375 261.648438 232.683594 261.476562 231.886719 C 261.300781 231.089844 261.085938 230.304688 260.832031 229.53125 C 260.574219 228.757812 260.28125 227.996094 259.945312 227.253906 C 259.609375 226.511719 259.238281 225.785156 258.828125 225.082031 C 258.417969 224.378906 257.972656 223.695312 257.492188 223.039062 C 257.011719 222.378906 256.5 221.746094 255.953125 221.144531 C 255.40625 220.539062 254.828125 219.964844 254.222656 219.417969 C 253.617188 218.871094 252.984375 218.359375 252.324219 217.882812 C 251.664062 217.402344 250.980469 216.957031 250.277344 216.550781 C 249.570312 216.144531 248.847656 215.773438 248.101562 215.4375 C 247.359375 215.105469 246.597656 214.8125 245.824219 214.558594 C 245.050781 214.304688 244.261719 214.09375 243.464844 213.921875 C 242.667969 213.75 241.867188 213.617188 241.054688 213.53125 C 240.246094 213.441406 239.433594 213.394531 238.617188 213.390625 C 237.800781 213.386719 236.988281 213.425781 236.175781 213.507812 C 237.640625 215.066406 238.945312 216.746094 240.089844 218.550781 C 241.234375 220.359375 242.199219 222.253906 242.984375 224.242188 C 243.765625 226.230469 244.359375 228.277344 244.757812 230.375 C 245.152344 232.476562 245.351562 234.597656 245.347656 236.734375 L 245.457031 248.402344 L 262.070312 248.402344 Z M 113.539062 236.734375 L 113.484375 248.402344 L 130.152344 248.402344 L 130.152344 236.734375 C 130.15625 234.59375 130.355469 232.472656 130.757812 230.371094 C 131.160156 228.273438 131.757812 226.226562 132.546875 224.238281 C 133.335938 222.25 134.304688 220.355469 135.453125 218.550781 C 136.601562 216.742188 137.910156 215.0625 139.378906 213.507812 C 138.566406 213.425781 137.753906 213.386719 136.9375 213.390625 C 136.125 213.394531 135.308594 213.441406 134.5 213.53125 C 133.691406 213.617188 132.886719 213.75 132.089844 213.921875 C 131.292969 214.09375 130.507812 214.304688 129.730469 214.558594 C 128.957031 214.8125 128.199219 215.105469 127.453125 215.4375 C 126.710938 215.773438 125.984375 216.140625 125.277344 216.550781 C 124.574219 216.957031 123.890625 217.402344 123.230469 217.882812 C 122.570312 218.359375 121.9375 218.871094 121.332031 219.417969 C 120.726562 219.960938 120.148438 220.539062 119.605469 221.144531 C 119.058594 221.746094 118.542969 222.378906 118.0625 223.039062 C 117.582031 223.695312 117.136719 224.378906 116.726562 225.082031 C 116.316406 225.785156 115.945312 226.511719 115.609375 227.253906 C 115.277344 227.996094 114.980469 228.757812 114.726562 229.53125 C 114.46875 230.304688 114.253906 231.089844 114.082031 231.886719 C 113.90625 232.683594 113.773438 233.484375 113.683594 234.296875 C 113.59375 235.105469 113.542969 235.917969 113.539062 236.734375 Z M 113.539062 236.734375 " fill-opacity="1" fill-rule="nonzero"/></g><g clip-path="url(#0cec0658e3)"><path fill="#ffffff" d="M 147.113281 0 C 151.859375 1.085938 156.703125 1.878906 161.449219 3.164062 C 181.417969 8.898438 197.238281 20.367188 209.496094 37.46875 C 171.730469 49.433594 146.027344 73.65625 135.347656 111.917969 C 124.472656 151.066406 136.632812 184.089844 165.007812 212.167969 C 125.363281 237.871094 99.558594 271.488281 101.929688 321.511719 C 100.546875 321.613281 99.460938 321.808594 98.371094 321.808594 C 85.617188 321.808594 72.863281 321.910156 60.011719 321.808594 C 40.039062 321.710938 25.113281 308.957031 21.652344 289.28125 C 21.554688 288.394531 21.257812 287.601562 20.960938 286.8125 L 20.960938 253.394531 C 21.15625 252.40625 21.554688 251.417969 21.652344 250.429688 C 22.738281 238.664062 26.496094 227.6875 32.429688 217.605469 C 47.355469 192.394531 69.503906 175.980469 96.296875 165.304688 C 98.074219 164.613281 99.855469 163.921875 100.84375 163.523438 C 92.339844 156.40625 83.246094 149.882812 75.433594 142.070312 C 60.703125 127.242188 51.3125 109.246094 50.917969 87.695312 C 50.125 48.34375 77.414062 12.753906 115.574219 2.964844 C 119.925781 1.878906 124.375 0.988281 128.824219 0 Z M 147.113281 0 " fill-opacity="1" fill-rule="nonzero"/></g><g clip-path="url(#fc34e4acbb)"><path fill="#ffffff" d="M 201.09375 216.320312 C 195.261719 212.066406 189.230469 208.210938 183.792969 203.566406 C 167.578125 189.824219 155.320312 173.214844 151.761719 151.761719 C 147.707031 127.339844 153.933594 105.09375 169.554688 86.113281 C 191.898438 58.824219 221.261719 47.753906 255.765625 55.265625 C 292.148438 63.175781 314.691406 86.804688 322.796875 123.1875 C 329.027344 150.96875 319.832031 174.695312 300.652344 194.667969 C 293.433594 202.082031 284.539062 207.914062 276.332031 214.441406 C 275.539062 215.035156 274.75 215.527344 273.464844 216.320312 C 278.109375 218.296875 282.460938 219.878906 286.613281 221.855469 C 311.921875 233.71875 332.585938 250.625 345.539062 275.9375 C 350.976562 286.515625 354.039062 297.785156 353.644531 309.847656 C 353.347656 319.4375 353.546875 329.027344 353.546875 338.714844 C 353.546875 355.820312 340.890625 371.144531 324.082031 374.308594 C 321.511719 374.800781 318.84375 375 316.175781 375 L 158.679688 375 C 138.710938 375 121.804688 359.675781 121.210938 339.703125 C 120.816406 325.46875 120.519531 311.035156 122.59375 296.996094 C 125.855469 275.144531 138.609375 258.042969 154.824219 243.507812 C 167.480469 232.136719 182.011719 223.832031 197.929688 217.902344 C 198.917969 217.507812 199.808594 217.210938 200.699219 216.8125 C 200.996094 216.714844 201.09375 216.417969 201.09375 216.320312 Z M 201.09375 216.320312 " fill-opacity="1" fill-rule="nonzero"/></g></svg>